<?xml version="1.0" encoding="UTF-8"?><svg xmlns="http://www.w3.org/2000/svg" xmlns:xlink="http://www.w3.org/1999/xlink" width="64px" height="64px" viewBox="0 0 64 64" version="1.1"><title>x</title><defs><path id="path-1" d="M.06 64V.04H64V64z"/></defs><g id="Page-1" stroke="none" stroke-width="1" fill="none" fill-rule="evenodd"><g id="x"><g id="Group-3"><mask id="mask-2" fill="#fff"><use xlink:href="#path-1"/></mask><path d="M64 32c0 17.673-14.327 32-32 32C14.327 64 0 49.673 0 32 0 14.327 14.327 0 32 0c17.673 0 32 14.327 32 32" id="Fill-1" fill="#DEDECA" mask="url(#mask-2)"/></g><path d="M42 49H22c-.265 0-.524-.026-.775-.075.485-.56 1.044-1.206 1.67-1.925H42c.302 0 .597-.034.88-.097.376.515.746 1.035 1.112 1.567A3.988 3.988 0 0 1 42 49m-23.787-2.708A4 4 0 0 1 18 45V25v18c0 .952.333 1.826.888 2.513l-.675.779" id="Fill-4" fill="#B3B2A4"/><path d="M22 45c-1.103 0-2-.897-2-2V23c0-1.103.897-2 2-2h20c1.103 0 2 .897 2 2v20c0 1.103-.897 2-2 2H22" id="Fill-5" fill="#FFFFFE"/><path d="M42 19H22a4 4 0 0 0-4 4v20a4 4 0 0 0 4 4h20a4 4 0 0 0 4-4V23a4 4 0 0 0-4-4zM22 43h20V23H22v20z" id="Fill-6" fill="#4C5665"/><path d="M46.998 51.382a1.996 1.996 0 0 1-1.688-.925c-.43-.674-.87-1.338-1.318-1.987.326-.188.622-.42.882-.688.146.224.291.448.436.675a1.997 1.997 0 0 0 3.418-.075 2 2 0 0 1-1.73 3" id="Fill-7" fill="#B3B2A4"/><path d="M43.992 48.47a68.398 68.398 0 0 0-1.112-1.567c.396-.089.77-.237 1.112-.434.297.432.592.871.882 1.313-.26.268-.556.5-.882.688" id="Fill-8" fill="#939388"/><path d="M41.44 43h-1.625a81.155 81.155 0 0 0-6.971-7.286l.973-1.086A78.937 78.937 0 0 1 41.44 43" id="Fill-9" fill="#CFCDC8"/><path d="M42.88 46.903A72.132 72.132 0 0 0 39.815 43h1.625a70.217 70.217 0 0 1 2.552 3.469 3.972 3.972 0 0 1-1.112.434" id="Fill-10" fill="#414A55"/><path d="M18 24.566c-2.338-1.405-3.8-2.121-3.853-2.146a2 2 0 0 1-.863-2.802c.194.337.488.621.864.802.052.025 1.523.746 3.874 2.159A3.903 3.903 0 0 0 18 23v1.566" id="Fill-11" fill="#B3B2A4"/><path d="M29.847 33.065A93.183 93.183 0 0 0 22 27.122v-2a92.799 92.799 0 0 1 8.86 6.812l-1.013 1.131" id="Fill-12" fill="#CFCDC8"/><path d="M22 27.122a87.557 87.557 0 0 0-4-2.556V23c0-.142.007-.283.022-.421A87.73 87.73 0 0 1 22 25.122v2" id="Fill-13" fill="#414A55"/><path d="M46.998 49.382a1.997 1.997 0 0 1-1.688-.925C33.478 29.891 14.34 20.513 14.148 20.42a2 2 0 0 1 1.734-3.605c.825.397 20.337 9.934 32.801 29.492a2 2 0 0 1-1.685 3.075" id="Fill-14" fill="#B85756"/><path d="M17.617 52.047a2 2 0 0 1-1.519-3.3c.034-.04.802-.937 2.115-2.455a4.007 4.007 0 0 0 3.012 2.633 501.672 501.672 0 0 0-2.086 2.422c-.397.463-.957.7-1.522.7" id="Fill-15" fill="#B3B2A4"/><path d="M21.225 48.925a4.007 4.007 0 0 1-3.012-2.633l.675-.779A3.992 3.992 0 0 0 22 47h.895c-.626.719-1.185 1.365-1.67 1.925" id="Fill-16" fill="#939388"/><path d="M26.39 43H22v-1.059c2.214-2.531 4.911-5.592 7.847-8.876.988.835 1.99 1.718 2.997 2.649A1066.383 1066.383 0 0 0 26.39 43" id="Fill-17" fill="#CFCDC8"/><path d="M22.895 47H22a3.992 3.992 0 0 1-3.112-1.487c.872-1.005 1.922-2.212 3.112-3.572V43h4.39c-1.308 1.49-2.487 2.841-3.495 4" id="Fill-18" fill="#414A55"/><path d="M45.757 21.624a4.008 4.008 0 0 0-3.079-2.567 425.95 425.95 0 0 1 2.26-2.374c.393-.41.919-.616 1.445-.616a2 2 0 0 1 1.442 3.385 383.18 383.18 0 0 0-2.068 2.172" id="Fill-19" fill="#B3B2A4"/><path d="M36.516 31.633a90.058 90.058 0 0 0-2.953-2.698A708.641 708.641 0 0 1 38.993 23H42v2.639a707.123 707.123 0 0 0-5.484 5.994" id="Fill-20" fill="#CFCDC8"/><path d="M42 25.639V23h-3.007a528.974 528.974 0 0 1 3.685-3.943 4.008 4.008 0 0 1 3.079 2.567A531.267 531.267 0 0 0 42 25.639" id="Fill-21" fill="#414A55"/><path d="M32.844 35.714a89.855 89.855 0 0 0-2.997-2.649l1.013-1.131a86.86 86.86 0 0 1 2.957 2.694l-.973 1.086" id="Fill-22" fill="#A9A7A4"/><path d="M33.817 34.628a86.86 86.86 0 0 0-2.957-2.694c.885-.986 1.788-1.989 2.703-2.999a90.058 90.058 0 0 1 2.953 2.698c-.915 1.01-1.815 2.01-2.699 2.995" id="Fill-23" fill="#974D4C"/><path d="M17.617 50.047a2 2 0 0 1-1.519-3.3c.158-.185 15.931-18.611 28.841-32.064a2 2 0 1 1 2.886 2.769c-12.829 13.369-28.53 31.711-28.687 31.895-.395.463-.956.7-1.521.7" id="Fill-24" fill="#B85756"/></g></g><metadata><rdf:RDF xmlns:rdf="http://www.w3.org/1999/02/22-rdf-syntax-ns#" xmlns:rdfs="http://www.w3.org/2000/01/rdf-schema#" xmlns:dc="http://purl.org/dc/elements/1.1/"><rdf:Description about="https://iconscout.com/legal#licenses" dc:title="x" dc:description="x" dc:publisher="Iconscout" dc:date="2017-09-25" dc:format="image/svg+xml" dc:language="en"><dc:creator><rdf:Bag><rdf:li>Elegant Themes</rdf:li></rdf:Bag></dc:creator></rdf:Description></rdf:RDF></metadata></svg>